<!--
  1oT wordmark, sourced from the public 1oT.com brand assets. The
  black fills have been replaced with currentColor so the light /
  dark mode switch in mkdocs.oneot.yml can recolor the glyph without
  shipping a second asset. Brand green (#00D799) is preserved as-is.
-->
<svg xmlns="http://www.w3.org/2000/svg" width="71" height="24" viewBox="0 0 71 24" fill="none" role="img" aria-label="1oT">
  <title>1oT</title>
  <g clip-path="url(#oneot-logo-clip)">
    <path d="M10.6635 0.0319824L0.5 11.4872L10.6751 11.4959V0.0319824H10.6635Z" fill="#00D799"/>
    <path d="M16.9061 0.0319824H10.6641V23.7979H16.9061V0.0319824Z" fill="currentColor"/>
    <path d="M50.9062 0V6.21023H57.0847V23.7977H63.3267V6.21023H69.6323V0H50.9062Z" fill="currentColor"/>
    <g>
      <mask id="oneot-logo-mask" style="mask-type:luminance" maskUnits="userSpaceOnUse" x="0" y="0" width="70" height="24">
        <path d="M69.6332 0H0.5V24H69.6332V0Z" fill="white"/>
      </mask>
      <g mask="url(#oneot-logo-mask)">
        <path d="M31.9199 15.0648C31.9199 14.3515 32.1314 13.6542 32.5277 13.0611C32.924 12.468 33.4873 12.0057 34.1463 11.7328C34.8053 11.4598 35.5304 11.3884 36.23 11.5276C36.9296 11.6667 37.5722 12.0102 38.0766 12.5146C38.581 13.0189 38.9245 13.6616 39.0636 14.3612C39.2028 15.0608 39.1314 15.7859 38.8584 16.4449C38.5854 17.1039 38.1232 17.6672 37.5301 18.0634C36.937 18.4597 36.2397 18.6713 35.5264 18.6713C35.0527 18.6716 34.5836 18.5786 34.1458 18.3975C33.7081 18.2164 33.3104 17.9508 32.9754 17.6158C32.6404 17.2808 32.3748 16.8831 32.1937 16.4453C32.0126 16.0076 31.9195 15.5385 31.9199 15.0648Z" fill="#00D799"/>
        <path d="M35.509 6.14384C37.275 6.1387 39.0028 6.65732 40.4741 7.6341C41.9453 8.61089 43.0939 10.002 43.7746 11.6315C44.4552 13.261 44.6375 15.0558 44.2982 16.7889C43.9589 18.5219 43.1134 20.1155 41.8685 21.3681C40.6236 22.6206 39.0353 23.4759 37.3043 23.8259C35.5734 24.1758 33.7775 24.0046 32.1438 23.3339C30.5102 22.6633 29.112 21.5233 28.1262 20.0581C27.1404 18.5929 26.6112 16.8683 26.6055 15.1023C26.6054 12.7358 27.5417 10.4655 29.2099 8.78704C30.8781 7.10857 33.1426 6.15834 35.509 6.14384ZM35.509 11.4871C34.7997 11.4871 34.1063 11.6975 33.5166 12.0915C32.9268 12.4856 32.4672 13.0457 32.1957 13.701C31.9243 14.3563 31.8533 15.0774 31.9917 15.773C32.13 16.4687 32.4716 17.1077 32.9731 17.6093C33.4747 18.1108 34.1137 18.4524 34.8094 18.5908C35.505 18.7291 36.2261 18.6581 36.8814 18.3867C37.5367 18.1152 38.0968 17.6556 38.4909 17.0658C38.885 16.4761 39.0953 15.7827 39.0953 15.0734C39.0964 14.6021 39.0044 14.1353 38.8246 13.6996C38.6448 13.264 38.3807 12.8682 38.0474 12.535C37.7142 12.2017 37.3184 11.9376 36.8828 11.7578C36.4472 11.578 35.9803 11.486 35.509 11.4871Z" fill="currentColor"/>
      </g>
    </g>
  </g>
  <defs>
    <clipPath id="oneot-logo-clip">
      <rect width="70" height="24" fill="white" transform="translate(0.5)"/>
    </clipPath>
  </defs>
</svg>
